<?xml version="1.0" standalone="no"?>
<!DOCTYPE svg PUBLIC "-//W3C//DTD SVG 20010904//EN"
 "http://www.w3.org/TR/2001/REC-SVG-20010904/DTD/svg10.dtd">
<svg version="1.0" xmlns="http://www.w3.org/2000/svg"
 width="1772.000000pt" height="1772.000000pt" viewBox="0 0 1772.000000 1772.000000"
 preserveAspectRatio="xMidYMid meet">

<g transform="translate(0.000000,1772.000000) scale(0.100000,-0.100000)"
fill="#000000" stroke="none">
<path d="M8530 17714 c-819 -39 -1519 -156 -2255 -379 -1218 -368 -2381 -1025
-3335 -1884 -157 -141 -484 -467 -634 -631 -1250 -1373 -2029 -3086 -2246
-4935 -42 -364 -54 -582 -54 -1025 0 -443 12 -661 54 -1025 201 -1718 884
-3311 1989 -4640 407 -490 915 -977 1421 -1366 836 -643 1806 -1142 2808
-1445 2301 -696 4782 -435 6870 723 1252 693 2327 1690 3117 2889 459 697 831
1488 1071 2282 696 2301 435 4782 -723 6870 -693 1252 -1690 2327 -2889 3117
-1255 827 -2684 1312 -4214 1430 -185 14 -819 27 -980 19z m-1768 -7267 l1588
1588 0 -675 0 -675 -1582 -1582 c-871 -871 -1587 -1583 -1593 -1583 -5 0 -722
712 -1592 1582 l-1583 1583 0 675 0 675 1587 -1588 1588 -1587 1587 1587z
m3488 -1587 l0 -3170 -475 0 -475 0 0 3170 0 3170 475 0 475 0 0 -3170z m1900
2732 l0 -437 -475 -475 -475 -475 0 913 0 912 475 0 475 0 0 -438z m1980
-1147 l-1585 -1585 1585 -1585 1585 -1585 -675 0 -675 0 -1585 1585 -1585
1585 1585 1585 1585 1585 675 0 675 0 -1585 -1585z m-5780 -2930 l0 -1825
-480 0 -480 0 0 1347 0 1348 477 477 c263 263 479 478 480 478 2 0 3 -821 3
-1825z"/>
</g>
</svg>
